<mxfile host="app.diagrams.net" modified="2020-12-13T20:37:36.812Z" agent="5.0 (Macintosh; Intel Mac OS X 11_0_1) AppleWebKit/537.36 (KHTML, like Gecko) Chrome/87.0.4280.88 Safari/537.36" etag="n0HIdG-3NlV09HSr5b0Q" version="14.0.1" type="github">
  <diagram id="C5RBs43oDa-KdzZeNtuy" name="Page-1">
    <mxGraphModel dx="1243" dy="669" grid="1" gridSize="10" guides="1" tooltips="1" connect="1" arrows="1" fold="1" page="1" pageScale="1" pageWidth="827" pageHeight="1169" background="#DAD2D8" math="0" shadow="0">
      <root>
        <mxCell id="WIyWlLk6GJQsqaUBKTNV-0" />
        <mxCell id="WIyWlLk6GJQsqaUBKTNV-1" parent="WIyWlLk6GJQsqaUBKTNV-0" />
        <mxCell id="sZihdBRbNo1r64SAuqrW-2" value="" style="edgeStyle=orthogonalEdgeStyle;curved=0;rounded=1;sketch=0;orthogonalLoop=1;jettySize=auto;html=1;strokeColor=#A8201A;fillColor=#FAE5C7;fontColor=#143642;" edge="1" parent="WIyWlLk6GJQsqaUBKTNV-1" source="WIyWlLk6GJQsqaUBKTNV-3" target="hu1RI9fIDWuBbXWEI8v2-5">
          <mxGeometry relative="1" as="geometry" />
        </mxCell>
        <object label="&lt;u&gt;&lt;b&gt;Start Program&lt;/b&gt;&lt;/u&gt;" id="WIyWlLk6GJQsqaUBKTNV-3">
          <mxCell style="rounded=1;whiteSpace=wrap;html=1;fontSize=12;glass=0;strokeWidth=1;shadow=0;fillColor=#d5e8d4;strokeColor=#82b366;gradientColor=#97d077;" parent="WIyWlLk6GJQsqaUBKTNV-1" vertex="1">
            <mxGeometry x="50" y="135" width="120" height="40" as="geometry" />
          </mxCell>
        </object>
        <mxCell id="sZihdBRbNo1r64SAuqrW-4" value="" style="edgeStyle=orthogonalEdgeStyle;curved=0;rounded=1;sketch=0;orthogonalLoop=1;jettySize=auto;html=1;strokeColor=#A8201A;fillColor=#FAE5C7;fontColor=#143642;" edge="1" parent="WIyWlLk6GJQsqaUBKTNV-1" source="hu1RI9fIDWuBbXWEI8v2-5" target="sZihdBRbNo1r64SAuqrW-3">
          <mxGeometry relative="1" as="geometry" />
        </mxCell>
        <mxCell id="sZihdBRbNo1r64SAuqrW-23" style="edgeStyle=orthogonalEdgeStyle;curved=0;rounded=1;sketch=0;orthogonalLoop=1;jettySize=auto;html=1;entryX=1;entryY=0.5;entryDx=0;entryDy=0;strokeColor=#A8201A;fillColor=#FAE5C7;fontColor=#FFFFFF;" edge="1" parent="WIyWlLk6GJQsqaUBKTNV-1" source="hu1RI9fIDWuBbXWEI8v2-5" target="hu1RI9fIDWuBbXWEI8v2-15">
          <mxGeometry relative="1" as="geometry" />
        </mxCell>
        <mxCell id="hu1RI9fIDWuBbXWEI8v2-5" value="&lt;u&gt;&lt;b&gt;Welcome Page&lt;br&gt;&lt;/b&gt;&lt;/u&gt;&lt;span&gt;Welcome to LockedMe.com&lt;/span&gt;&lt;u&gt;&lt;br&gt;&lt;/u&gt;&lt;ul&gt;&lt;li style=&quot;text-align: left&quot;&gt;Developer: Aibek Ozhorov&lt;/li&gt;&lt;li style=&quot;text-align: left&quot;&gt;Contact Email: aibek.ozhorov@hcl.com&lt;/li&gt;&lt;li style=&quot;text-align: left&quot;&gt;To start please entry &quot;y&quot;&lt;/li&gt;&lt;li style=&quot;text-align: left&quot;&gt;To quit please entry &quot;q&quot;&lt;/li&gt;&lt;/ul&gt;" style="rounded=1;whiteSpace=wrap;html=1;fillColor=#FAE5C7;strokeColor=#0F8B8D;fontColor=#143642;" vertex="1" parent="WIyWlLk6GJQsqaUBKTNV-1">
          <mxGeometry x="240" y="90" width="255" height="130" as="geometry" />
        </mxCell>
        <mxCell id="hu1RI9fIDWuBbXWEI8v2-15" value="&lt;b&gt;Exit Program&lt;br&gt;&lt;/b&gt;Good bye! í ½í¹‚" style="whiteSpace=wrap;html=1;rounded=1;fillColor=#a20025;strokeColor=#6F0000;fontColor=#ffffff;" vertex="1" parent="WIyWlLk6GJQsqaUBKTNV-1">
          <mxGeometry x="520" y="90" width="90" height="40" as="geometry" />
        </mxCell>
        <mxCell id="sZihdBRbNo1r64SAuqrW-7" style="edgeStyle=orthogonalEdgeStyle;curved=0;rounded=1;sketch=0;orthogonalLoop=1;jettySize=auto;html=1;strokeColor=#A8201A;fillColor=#FAE5C7;fontColor=#143642;" edge="1" parent="WIyWlLk6GJQsqaUBKTNV-1" source="sZihdBRbNo1r64SAuqrW-3" target="hu1RI9fIDWuBbXWEI8v2-15">
          <mxGeometry relative="1" as="geometry" />
        </mxCell>
        <mxCell id="sZihdBRbNo1r64SAuqrW-26" value="" style="edgeStyle=orthogonalEdgeStyle;curved=0;rounded=1;sketch=0;orthogonalLoop=1;jettySize=auto;html=1;strokeColor=#A8201A;fillColor=#FAE5C7;fontColor=#FFFFFF;" edge="1" parent="WIyWlLk6GJQsqaUBKTNV-1" source="sZihdBRbNo1r64SAuqrW-3" target="sZihdBRbNo1r64SAuqrW-25">
          <mxGeometry relative="1" as="geometry" />
        </mxCell>
        <mxCell id="sZihdBRbNo1r64SAuqrW-3" value="&lt;b&gt;Main Menu&lt;/b&gt;&lt;br&gt;Please select:&lt;br&gt;1. Show all files&lt;br&gt;2. More options&lt;br&gt;3.Exit&lt;br&gt;" style="whiteSpace=wrap;html=1;rounded=1;fontColor=#ffffff;strokeColor=#006EAF;fillColor=#1ba1e2;" vertex="1" parent="WIyWlLk6GJQsqaUBKTNV-1">
          <mxGeometry x="302.5" y="265" width="130" height="70" as="geometry" />
        </mxCell>
        <mxCell id="sZihdBRbNo1r64SAuqrW-8" value="&quot;y&quot;" style="text;html=1;align=center;verticalAlign=middle;resizable=0;points=[];autosize=1;fontColor=#ffffff;fillColor=#d80073;strokeColor=#A50040;" vertex="1" parent="WIyWlLk6GJQsqaUBKTNV-1">
          <mxGeometry x="370" y="220" width="30" height="20" as="geometry" />
        </mxCell>
        <mxCell id="sZihdBRbNo1r64SAuqrW-9" value="3" style="text;html=1;align=center;verticalAlign=middle;resizable=0;points=[];autosize=1;fillColor=#d80073;strokeColor=#A50040;fontColor=#ffffff;" vertex="1" parent="WIyWlLk6GJQsqaUBKTNV-1">
          <mxGeometry x="540" y="250" width="20" height="20" as="geometry" />
        </mxCell>
        <mxCell id="hu1RI9fIDWuBbXWEI8v2-19" value="&lt;font&gt;&quot;q&quot;&lt;/font&gt;" style="text;html=1;align=center;verticalAlign=middle;resizable=0;points=[];autosize=1;fillColor=#d80073;strokeColor=#A50040;fontColor=#FFFFFF;" vertex="1" parent="WIyWlLk6GJQsqaUBKTNV-1">
          <mxGeometry x="630" y="130" width="30" height="20" as="geometry" />
        </mxCell>
        <mxCell id="sZihdBRbNo1r64SAuqrW-30" style="edgeStyle=orthogonalEdgeStyle;curved=0;rounded=1;sketch=0;orthogonalLoop=1;jettySize=auto;html=1;strokeColor=#A8201A;fillColor=#FAE5C7;fontColor=#FFFFFF;endArrow=openAsync;endFill=0;" edge="1" parent="WIyWlLk6GJQsqaUBKTNV-1" source="sZihdBRbNo1r64SAuqrW-25">
          <mxGeometry relative="1" as="geometry">
            <mxPoint x="479.9999999999998" y="290" as="targetPoint" />
          </mxGeometry>
        </mxCell>
        <mxCell id="sZihdBRbNo1r64SAuqrW-39" style="edgeStyle=orthogonalEdgeStyle;curved=0;rounded=1;sketch=0;orthogonalLoop=1;jettySize=auto;html=1;exitX=0.5;exitY=1;exitDx=0;exitDy=0;endArrow=block;endFill=1;strokeColor=#A8201A;fillColor=#FAE5C7;fontColor=#FFFFFF;" edge="1" parent="WIyWlLk6GJQsqaUBKTNV-1" source="sZihdBRbNo1r64SAuqrW-25">
          <mxGeometry relative="1" as="geometry">
            <mxPoint x="309.9999999999998" y="580" as="targetPoint" />
          </mxGeometry>
        </mxCell>
        <mxCell id="sZihdBRbNo1r64SAuqrW-43" style="edgeStyle=orthogonalEdgeStyle;curved=0;rounded=1;sketch=0;orthogonalLoop=1;jettySize=auto;html=1;endArrow=block;endFill=1;strokeColor=#A8201A;fillColor=#FAE5C7;fontColor=#FFFFFF;" edge="1" parent="WIyWlLk6GJQsqaUBKTNV-1" source="sZihdBRbNo1r64SAuqrW-25" target="sZihdBRbNo1r64SAuqrW-44">
          <mxGeometry relative="1" as="geometry">
            <mxPoint x="549.9999999999998" y="490" as="targetPoint" />
          </mxGeometry>
        </mxCell>
        <mxCell id="sZihdBRbNo1r64SAuqrW-55" style="edgeStyle=orthogonalEdgeStyle;curved=0;rounded=1;sketch=0;orthogonalLoop=1;jettySize=auto;html=1;endArrow=block;endFill=1;strokeColor=#A8201A;fillColor=#FAE5C7;fontColor=#FFFFFF;" edge="1" parent="WIyWlLk6GJQsqaUBKTNV-1" source="sZihdBRbNo1r64SAuqrW-25">
          <mxGeometry relative="1" as="geometry">
            <mxPoint x="610" y="320" as="targetPoint" />
            <Array as="points">
              <mxPoint x="540" y="465" />
              <mxPoint x="540" y="320" />
            </Array>
          </mxGeometry>
        </mxCell>
        <mxCell id="sZihdBRbNo1r64SAuqrW-64" style="edgeStyle=orthogonalEdgeStyle;curved=0;rounded=1;sketch=0;orthogonalLoop=1;jettySize=auto;html=1;endArrow=block;endFill=1;strokeColor=#A8201A;fillColor=#FAE5C7;fontColor=#FFFFFF;" edge="1" parent="WIyWlLk6GJQsqaUBKTNV-1" source="sZihdBRbNo1r64SAuqrW-25">
          <mxGeometry relative="1" as="geometry">
            <mxPoint x="500" y="630" as="targetPoint" />
            <Array as="points">
              <mxPoint x="350" y="560" />
              <mxPoint x="460" y="560" />
            </Array>
          </mxGeometry>
        </mxCell>
        <mxCell id="sZihdBRbNo1r64SAuqrW-25" value="&lt;font style=&quot;font-size: 15px&quot;&gt;&lt;b&gt;Edit File Menu&lt;br&gt;&lt;/b&gt;1. Add new file&lt;br&gt;2. Search a file&lt;br&gt;3. Delete a file&lt;br&gt;4. Return to the main menu&lt;/font&gt;" style="shape=hexagon;perimeter=hexagonPerimeter2;whiteSpace=wrap;html=1;fixedSize=1;rounded=1;strokeColor=#82b366;fillColor=#d5e8d4;" vertex="1" parent="WIyWlLk6GJQsqaUBKTNV-1">
          <mxGeometry x="240" y="410" width="220" height="110" as="geometry" />
        </mxCell>
        <mxCell id="sZihdBRbNo1r64SAuqrW-36" value="" style="endArrow=classic;html=1;strokeColor=#A8201A;fillColor=#FAE5C7;fontColor=#FFFFFF;entryX=1.021;entryY=0.365;entryDx=0;entryDy=0;entryPerimeter=0;" edge="1" parent="WIyWlLk6GJQsqaUBKTNV-1" target="sZihdBRbNo1r64SAuqrW-3">
          <mxGeometry width="50" height="50" relative="1" as="geometry">
            <mxPoint x="480" y="290" as="sourcePoint" />
            <mxPoint x="440" y="290" as="targetPoint" />
          </mxGeometry>
        </mxCell>
        <mxCell id="sZihdBRbNo1r64SAuqrW-37" value="2" style="text;html=1;align=center;verticalAlign=middle;resizable=0;points=[];autosize=1;fontColor=#ffffff;fillColor=#60a917;strokeColor=#2D7600;" vertex="1" parent="WIyWlLk6GJQsqaUBKTNV-1">
          <mxGeometry x="370" y="360" width="20" height="20" as="geometry" />
        </mxCell>
        <mxCell id="sZihdBRbNo1r64SAuqrW-38" value="4" style="text;html=1;align=center;verticalAlign=middle;resizable=0;points=[];autosize=1;fontColor=#ffffff;fillColor=#d80073;strokeColor=#A50040;" vertex="1" parent="WIyWlLk6GJQsqaUBKTNV-1">
          <mxGeometry x="460" y="370" width="20" height="20" as="geometry" />
        </mxCell>
        <mxCell id="sZihdBRbNo1r64SAuqrW-40" value="&lt;b&gt;&lt;font color=&quot;#000000&quot; style=&quot;font-size: 16px&quot;&gt;Delete a file&lt;/font&gt;&lt;/b&gt;" style="rounded=1;whiteSpace=wrap;html=1;sketch=0;strokeColor=#B20000;fillColor=#e51400;fontColor=#ffffff;" vertex="1" parent="WIyWlLk6GJQsqaUBKTNV-1">
          <mxGeometry x="250" y="580" width="120" height="60" as="geometry" />
        </mxCell>
        <mxCell id="sZihdBRbNo1r64SAuqrW-47" value="" style="edgeStyle=orthogonalEdgeStyle;curved=0;rounded=1;sketch=0;orthogonalLoop=1;jettySize=auto;html=1;endArrow=block;endFill=1;strokeColor=#A8201A;fillColor=#FAE5C7;fontColor=#FFFFFF;" edge="1" parent="WIyWlLk6GJQsqaUBKTNV-1" source="sZihdBRbNo1r64SAuqrW-44" target="sZihdBRbNo1r64SAuqrW-46">
          <mxGeometry relative="1" as="geometry" />
        </mxCell>
        <mxCell id="sZihdBRbNo1r64SAuqrW-52" style="edgeStyle=orthogonalEdgeStyle;curved=0;rounded=1;sketch=0;orthogonalLoop=1;jettySize=auto;html=1;endArrow=block;endFill=1;strokeColor=#A8201A;fillColor=#FAE5C7;fontColor=#FFFFFF;" edge="1" parent="WIyWlLk6GJQsqaUBKTNV-1" source="sZihdBRbNo1r64SAuqrW-44" target="sZihdBRbNo1r64SAuqrW-53">
          <mxGeometry relative="1" as="geometry">
            <mxPoint x="930" y="590" as="targetPoint" />
          </mxGeometry>
        </mxCell>
        <mxCell id="sZihdBRbNo1r64SAuqrW-44" value="&lt;b style=&quot;font-size: 14px&quot;&gt;Add a new file&lt;br&gt;&lt;/b&gt;&lt;font style=&quot;font-size: 15px&quot;&gt;Please Entry your file name&lt;/font&gt;" style="whiteSpace=wrap;html=1;aspect=fixed;fillColor=#60a917;strokeColor=#2D7600;fontColor=#ffffff;" vertex="1" parent="WIyWlLk6GJQsqaUBKTNV-1">
          <mxGeometry x="610" y="440" width="120" height="120" as="geometry" />
        </mxCell>
        <mxCell id="sZihdBRbNo1r64SAuqrW-45" value="1" style="text;html=1;align=center;verticalAlign=middle;resizable=0;points=[];autosize=1;fillColor=#d80073;strokeColor=#A50040;fontColor=#ffffff;" vertex="1" parent="WIyWlLk6GJQsqaUBKTNV-1">
          <mxGeometry x="530" y="500" width="20" height="20" as="geometry" />
        </mxCell>
        <mxCell id="sZihdBRbNo1r64SAuqrW-46" value="&lt;b&gt;&lt;font style=&quot;font-size: 14px&quot;&gt;UnableToCreateNewFileException&lt;/font&gt;&lt;br&gt;&lt;font style=&quot;font-size: 14px&quot;&gt;InvalidInputException&lt;/font&gt;&lt;/b&gt;" style="whiteSpace=wrap;html=1;strokeColor=#C73500;fillColor=#fa6800;fontColor=#ffffff;" vertex="1" parent="WIyWlLk6GJQsqaUBKTNV-1">
          <mxGeometry x="820" y="410" width="240" height="60" as="geometry" />
        </mxCell>
        <mxCell id="sZihdBRbNo1r64SAuqrW-53" value="&lt;font style=&quot;font-size: 14px&quot;&gt;Your file&amp;nbsp; &quot;file name&quot; has been added âœ…&lt;/font&gt;" style="rounded=1;whiteSpace=wrap;html=1;fillColor=#b0e3e6;strokeColor=#0e8088;" vertex="1" parent="WIyWlLk6GJQsqaUBKTNV-1">
          <mxGeometry x="870" y="560" width="160" height="60" as="geometry" />
        </mxCell>
        <mxCell id="sZihdBRbNo1r64SAuqrW-60" value="" style="edgeStyle=orthogonalEdgeStyle;curved=0;rounded=1;sketch=0;orthogonalLoop=1;jettySize=auto;html=1;endArrow=block;endFill=1;strokeColor=#A8201A;fillColor=#FAE5C7;fontColor=#FFFFFF;" edge="1" parent="WIyWlLk6GJQsqaUBKTNV-1" source="sZihdBRbNo1r64SAuqrW-57" target="sZihdBRbNo1r64SAuqrW-59">
          <mxGeometry relative="1" as="geometry" />
        </mxCell>
        <mxCell id="sZihdBRbNo1r64SAuqrW-57" value="&lt;font color=&quot;#000000&quot; size=&quot;1&quot;&gt;&lt;b style=&quot;font-size: 14px&quot;&gt;Retrieve all files&lt;br&gt;file1.txt&lt;br&gt;file2.txt&lt;br&gt;file3.txt&lt;br&gt;&lt;/b&gt;&lt;/font&gt;" style="shape=hexagon;perimeter=hexagonPerimeter2;whiteSpace=wrap;html=1;fixedSize=1;rounded=0;sketch=0;strokeColor=#0F8B8D;fillColor=#FAE5C7;fontColor=#FFFFFF;" vertex="1" parent="WIyWlLk6GJQsqaUBKTNV-1">
          <mxGeometry x="590" y="260" width="150" height="120" as="geometry" />
        </mxCell>
        <mxCell id="sZihdBRbNo1r64SAuqrW-59" value="&lt;font color=&quot;#000000&quot; style=&quot;font-size: 14px&quot;&gt;&lt;b&gt;NameComparatorAsc&lt;/b&gt;&lt;/font&gt;" style="whiteSpace=wrap;html=1;rounded=0;fontColor=#FFFFFF;strokeColor=#0F8B8D;fillColor=#FAE5C7;sketch=0;" vertex="1" parent="WIyWlLk6GJQsqaUBKTNV-1">
          <mxGeometry x="827" y="290" width="173" height="60" as="geometry" />
        </mxCell>
        <mxCell id="sZihdBRbNo1r64SAuqrW-62" value="1" style="text;html=1;align=center;verticalAlign=middle;resizable=0;points=[];autosize=1;fillColor=#cdeb8b;strokeColor=#36393d;" vertex="1" parent="WIyWlLk6GJQsqaUBKTNV-1">
          <mxGeometry x="540" y="390" width="20" height="20" as="geometry" />
        </mxCell>
        <mxCell id="sZihdBRbNo1r64SAuqrW-63" value="implements" style="text;html=1;align=center;verticalAlign=middle;resizable=0;points=[];autosize=1;fillColor=#f9f7ed;strokeColor=#36393d;" vertex="1" parent="WIyWlLk6GJQsqaUBKTNV-1">
          <mxGeometry x="740" y="290" width="80" height="20" as="geometry" />
        </mxCell>
        <mxCell id="sZihdBRbNo1r64SAuqrW-66" style="edgeStyle=orthogonalEdgeStyle;curved=0;rounded=1;sketch=0;orthogonalLoop=1;jettySize=auto;html=1;entryX=0.914;entryY=0.955;entryDx=0;entryDy=0;entryPerimeter=0;endArrow=block;endFill=1;strokeColor=#A8201A;fillColor=#FAE5C7;fontColor=#FFFFFF;" edge="1" parent="WIyWlLk6GJQsqaUBKTNV-1" source="sZihdBRbNo1r64SAuqrW-65" target="sZihdBRbNo1r64SAuqrW-25">
          <mxGeometry relative="1" as="geometry">
            <Array as="points">
              <mxPoint x="558" y="540" />
              <mxPoint x="441" y="540" />
            </Array>
          </mxGeometry>
        </mxCell>
        <mxCell id="sZihdBRbNo1r64SAuqrW-72" value="" style="edgeStyle=orthogonalEdgeStyle;curved=0;rounded=1;sketch=0;orthogonalLoop=1;jettySize=auto;html=1;endArrow=block;endFill=1;strokeColor=#A8201A;fillColor=#FAE5C7;fontColor=#FFFFFF;" edge="1" parent="WIyWlLk6GJQsqaUBKTNV-1" source="sZihdBRbNo1r64SAuqrW-65" target="sZihdBRbNo1r64SAuqrW-71">
          <mxGeometry relative="1" as="geometry" />
        </mxCell>
        <mxCell id="sZihdBRbNo1r64SAuqrW-65" value="&lt;font color=&quot;#000000&quot; style=&quot;line-height: 150% ; font-size: 15px&quot;&gt;&lt;b&gt;&lt;i&gt;Search a file&lt;br&gt;1. Go back&lt;br&gt;2. Please enter the name of the file&lt;br&gt;&lt;/i&gt;&lt;/b&gt;&lt;/font&gt;" style="ellipse;whiteSpace=wrap;html=1;aspect=fixed;rounded=0;sketch=0;strokeColor=#0F8B8D;fillColor=#FAE5C7;fontColor=#FFFFFF;" vertex="1" parent="WIyWlLk6GJQsqaUBKTNV-1">
          <mxGeometry x="500" y="585" width="145" height="145" as="geometry" />
        </mxCell>
        <mxCell id="sZihdBRbNo1r64SAuqrW-67" value="1" style="text;html=1;align=center;verticalAlign=middle;resizable=0;points=[];autosize=1;fillColor=#cdeb8b;strokeColor=#36393d;" vertex="1" parent="WIyWlLk6GJQsqaUBKTNV-1">
          <mxGeometry x="510" y="540" width="20" height="20" as="geometry" />
        </mxCell>
        <mxCell id="sZihdBRbNo1r64SAuqrW-68" value="3" style="text;html=1;align=center;verticalAlign=middle;resizable=0;points=[];autosize=1;fillColor=#f8cecc;strokeColor=#b85450;" vertex="1" parent="WIyWlLk6GJQsqaUBKTNV-1">
          <mxGeometry x="287.5" y="540" width="20" height="20" as="geometry" />
        </mxCell>
        <mxCell id="sZihdBRbNo1r64SAuqrW-69" value="2" style="text;html=1;align=center;verticalAlign=middle;resizable=0;points=[];autosize=1;fillColor=#dae8fc;strokeColor=#6c8ebf;" vertex="1" parent="WIyWlLk6GJQsqaUBKTNV-1">
          <mxGeometry x="440" y="575" width="20" height="20" as="geometry" />
        </mxCell>
        <mxCell id="sZihdBRbNo1r64SAuqrW-71" value="&lt;font style=&quot;font-size: 13px&quot; color=&quot;#000000&quot;&gt;&lt;b&gt;The file exist &amp;lt;file name&amp;gt;&lt;br&gt;&lt;/b&gt;&lt;/font&gt;&lt;font color=&quot;#000000&quot; size=&quot;1&quot;&gt;&lt;b style=&quot;font-size: 17px&quot;&gt;or&lt;br&gt;&amp;nbsp;Not found&lt;/b&gt;&lt;/font&gt;" style="shape=trapezoid;perimeter=trapezoidPerimeter;whiteSpace=wrap;html=1;fixedSize=1;rounded=0;fontColor=#FFFFFF;strokeColor=#0F8B8D;fillColor=#FAE5C7;sketch=0;" vertex="1" parent="WIyWlLk6GJQsqaUBKTNV-1">
          <mxGeometry x="740" y="650" width="212.5" height="92.5" as="geometry" />
        </mxCell>
      </root>
    </mxGraphModel>
  </diagram>
</mxfile>
